<?xml version="1.0" encoding="UTF-8"?>
<svg width="32" height="32" viewBox="0 0 32 32" fill="none" xmlns="http://www.w3.org/2000/svg">
  <rect width="32" height="32" rx="8" fill="url(#gradient)"/>
  <path d="M20.3 11.3c-.5-1.1-1.4-1.9-2.5-2.4-1.1-.5-2.3-.6-3.5-.3-1.2.3-2.2 1-2.9 1.9-.7 1-1 2.2-.8 3.4.1.8.4 1.5.9 2.1.5.6 1.1 1.1 1.9 1.4 1.3.5 2.6.9 3.9 1.4.4.2.8.4 1.1.7.3.3.4.7.4 1.1 0 .6-.3 1.1-.8 1.5-.5.4-1.2.6-1.9.6-.8 0-1.6-.2-2.2-.7-.6-.5-1-1.1-1.1-1.9h-2.4c.1 1.3.6 2.5 1.5 3.4.9.9 2.1 1.5 3.4 1.6.7.1 1.4 0 2.1-.1.7-.1 1.3-.4 1.9-.8.6-.4 1.1-.9 1.4-1.5.4-.6.5-1.4.5-2.1 0-.8-.2-1.5-.6-2.2-.4-.6-1-1.1-1.6-1.5-.7-.4-1.4-.7-2.2-1l-2.1-.7c-.4-.1-.7-.3-1-.6-.3-.3-.4-.6-.4-1 0-.5.2-1 .7-1.3.4-.3 1-.5 1.5-.5.6 0 1.2.2 1.7.5.5.3.8.8.9 1.4h2.4z" fill="white"/>
  <defs>
    <linearGradient id="gradient" x1="0" y1="0" x2="32" y2="32" gradientUnits="userSpaceOnUse">
      <stop offset="0%" stop-color="#3B82F6"/>
      <stop offset="100%" stop-color="#6366F1"/>
    </linearGradient>
  </defs>
</svg> 